<?xml version="1.0" encoding="UTF-8"?>
<svg xmlns="http://www.w3.org/2000/svg" width="46.066" height="32.575" viewBox="0 0 46.066 32.575">
  <g id="Group_147" data-name="Group 147" transform="translate(0.052 0.052)">
    <path id="Path_224" data-name="Path 224" d="M571.176,290.555a.453.453,0,0,1-.463-.441v-1.2l-.036-.165v-6.969a3.17,3.17,0,0,0-.124-.6,3.345,3.345,0,0,0-.815-1.332,3.457,3.457,0,0,0-2.431-.98h-1.114l0,.184a1.312,1.312,0,0,1-.32.812,1.417,1.417,0,0,1-.295.274,1.5,1.5,0,0,1-.585.24l-.2.04-.423.016h-1.64a1.447,1.447,0,0,1-1.476-1.383l0-.184h-1.229a3.337,3.337,0,0,0-3.367,2.89,2.527,2.527,0,0,0-.037.357v8a.466.466,0,0,1-.93,0v-7.042l-.033-.374a2.631,2.631,0,0,0-.039-.323,4.659,4.659,0,0,0-.181-.652,4.832,4.832,0,0,0-.46-.971,4.784,4.784,0,0,0-.458-.633c-.048-.054-.1-.1-.152-.152a5.361,5.361,0,0,0-2.712-1.527c-.143,0-.589.01-.589.01l-.009.174a1.274,1.274,0,0,1-.514.943,2.185,2.185,0,0,1-.875.32H548.1a1.7,1.7,0,0,1-.651-.176,1.354,1.354,0,0,1-.582-.557,1.215,1.215,0,0,1-.155-.527l-.011-.174h-.184c-.388-.005-.643-.008-.8-.018a5.248,5.248,0,0,0-2.922,1.684,4.818,4.818,0,0,0-1.189,3.154v5.47a.466.466,0,0,1-.93,0v-5.47a5.669,5.669,0,0,1,1.4-3.712,6.207,6.207,0,0,1,3.5-2l.942-.182-.287-.249a3.276,3.276,0,0,1-1.168-2.494v-1.124h-.471V272.06a3.26,3.26,0,0,1,3.333-3.174h1.089l1.824-.011.068-.064a4.015,4.015,0,0,1,2.966-1.38H555.3l-.4-.33a2.631,2.631,0,0,1-.981-2.017v-.414l-.073-.057a1.916,1.916,0,0,1,0-2.806l.073-.056v-.47a2.7,2.7,0,0,1,2.762-2.628h1.663a2.7,2.7,0,0,1,2.761,2.628v.47l.075.056a1.919,1.919,0,0,1,0,2.806l-.075.057v.414a2.626,2.626,0,0,1-.981,2.017l-.4.33h1.432a4.037,4.037,0,0,1,3.1,1.509l.107.139.219,0a4.412,4.412,0,0,1,2.208-.6h1.43l-.4-.33a2.626,2.626,0,0,1-.981-2.017v-.415l-.075-.056a1.919,1.919,0,0,1,0-2.806l.075-.057,0-.537-.035-.139a3.362,3.362,0,0,1-.571-2.187.976.976,0,0,1,.648-.909l2.35-.759a2.981,2.981,0,0,1,1.041-.189,2.855,2.855,0,0,1,.5.043,2.321,2.321,0,0,1,1.849,1.156l.047.1.115.011a1.9,1.9,0,0,1,1.759,1.855v2.17a2.4,2.4,0,0,1,.167.845,1.751,1.751,0,0,1-.611,1.4l-.073.056v.415a2.631,2.631,0,0,1-.981,2.017l-.4.33h1.432a4.438,4.438,0,0,1,1.436.251l.112.037.087-.075a3.417,3.417,0,0,1,2.21-.816h1.57l1.733-.013.276.013a4.15,4.15,0,0,1,4.243,4.039v7.035a5.136,5.136,0,0,1,.886,2.794v7a.466.466,0,0,1-.93,0v-7a3.812,3.812,0,0,0-.234-1.264,4.135,4.135,0,0,0-.694-1.23,3.627,3.627,0,0,0-.247-.306,5.412,5.412,0,0,0-2.877-1.516l-.458.008-.141.176a1.367,1.367,0,0,1-1.389,1.266H578.1l-.174-.037a1.557,1.557,0,0,1-.538-.177,1.345,1.345,0,0,1-.678-1.047l-.011-.174-.991-.019a5.421,5.421,0,0,0-2.929,1.521,4.287,4.287,0,0,0-.675.943,3.994,3.994,0,0,0-.287.658,4.429,4.429,0,0,0-.212,1.2v7.189h.035v1.173A.455.455,0,0,1,571.176,290.555ZM553.871,268.31a2.9,2.9,0,0,0-1.548.471l-.338.211.383.124a4.054,4.054,0,0,1,2.9,3.81v6.623c.218.327.38.548.524.78l.187.3.161-.316a4.329,4.329,0,0,1,3.88-2.326h1.433l-.4-.33a2.631,2.631,0,0,1-.981-2.017v-.414l-.073-.057a1.916,1.916,0,0,1,0-2.806l.073-.056v-.47a2.677,2.677,0,0,1,2.677-2.619l.566-.018-.454-.321a2.907,2.907,0,0,0-1.7-.573h-1.114l0,.184a1.451,1.451,0,0,1-1.477,1.383h-1.988a1.449,1.449,0,0,1-1.476-1.383l0-.184Zm12.923,1.056a3.437,3.437,0,0,0-.552.053l-.452.072.364.263a2.568,2.568,0,0,1,1.1,2.088v.47l.075.056a1.922,1.922,0,0,1,0,2.806l-.075.057v.414a2.626,2.626,0,0,1-.981,2.017l-.4.33h1.43a4.414,4.414,0,0,1,3.526,1.743l.2.265.144-.3a5.154,5.154,0,0,1,.919-1.344,6.381,6.381,0,0,1,3.492-1.807l1.222.021-.434-.341a3.313,3.313,0,0,1-1.312-2.6V272.5h-.468v-1.447a3.018,3.018,0,0,1,.331-1.355l.108-.213-.247-.051a3.531,3.531,0,0,0-.7-.072h-1.116l0,.186a1.448,1.448,0,0,1-1.476,1.383H569.5a1.449,1.449,0,0,1-1.476-1.383l0-.186Zm-4.62,9.671a.552.552,0,0,0,.551.522h1.987a.53.53,0,0,0,.507-.384l.033-.048.011-.09v-.821l-.24.052a2.974,2.974,0,0,1-.587.061h-1.513a3.094,3.094,0,0,1-.516-.047l-.232-.039Zm-14.551-.912v.484l.051.1a.451.451,0,0,0,.275.251l.047.025.1.018h1.564a.454.454,0,0,0,.422-.29l.028-.044.027-.115v-.8l-.266.068a5.088,5.088,0,0,1-.57.146,3.738,3.738,0,0,1-.618.053,3.858,3.858,0,0,1-.638-.056l-.231-.037Zm3.46-6.8a1.952,1.952,0,0,0,.549,1.034.8.8,0,0,0,.515.264h.61a.468.468,0,0,1,.466.44.621.621,0,0,1-.093.242l-.047.064.017.078a2.1,2.1,0,0,1,.051.416,1.607,1.607,0,0,1-.925,1.577l-.092.034-.029.091a3.37,3.37,0,0,1-.975,1.5l-.06.056v.234l.159.1.506.1a6.236,6.236,0,0,1,2.288.966l.314.21v-5.806a3.218,3.218,0,0,0-2.884-3.12,3.562,3.562,0,0,0-.43-.04h-3.1l-.175.016a2.447,2.447,0,0,0-1.007.292,2.282,2.282,0,0,0-1.222,1.985v.566h3.541a.679.679,0,0,0,.412-.163,1.891,1.891,0,0,0,.65-1.135Zm26.542,5.8,0,.467.049.122a.422.422,0,0,0,.161.2.463.463,0,0,0,.262.091h1.564a.456.456,0,0,0,.424-.293l.027-.044.025-.112v-.8l-.263.068a3.974,3.974,0,0,1-1.192.2l-.181-.011a3.836,3.836,0,0,1-.518-.049l-.26-.082Zm4.1-.57a6.557,6.557,0,0,1,2.77,1.175l.322.239v-6.042a3.241,3.241,0,0,0-3.312-3.159h-3.58a2.5,2.5,0,0,0-1.166.3,2.422,2.422,0,0,0-.58.428,2.27,2.27,0,0,0-.407.566,2.18,2.18,0,0,0-.25,1v.567l3.539,0c.483,0,.975-.7,1.065-1.3h.959a1.944,1.944,0,0,0,.55,1.033.793.793,0,0,0,.514.264h1.076v.88h-.019l-.075.2.021.157a1.609,1.609,0,0,1-.923,1.579l-.092.034-.029.09a3.362,3.362,0,0,1-.977,1.5l-.06.055v.442l.472-.01.1-.009ZM561,275.644a1.752,1.752,0,0,0,.571,1.286,1.9,1.9,0,0,0,.614.383,2.734,2.734,0,0,0,.7.135h1.477a2.019,2.019,0,0,0,.734-.128,1.858,1.858,0,0,0,1.226-1.676V274.6l.342-.078a.837.837,0,0,0,.343-.757.929.929,0,0,0-.268-.722l-.416-.107v-1.1a1.7,1.7,0,0,0-.834-1.432,1.863,1.863,0,0,0-.771-.277l-.164-.029-.723-.01h-1A1.794,1.794,0,0,0,561,271.841v1.1l-.34.078a.847.847,0,0,0-.341.755.917.917,0,0,0,.27.724l.412.106Zm-15.009-1.013a2.381,2.381,0,0,0,.33,1.194,2.239,2.239,0,0,0,.211.314,2.527,2.527,0,0,0,.507.485c.068.049.137.1.211.14a2.646,2.646,0,0,0,.507.227c.068.023.137.045.208.063a2.741,2.741,0,0,0,.659.087,2.771,2.771,0,0,0,.77-.1,2.664,2.664,0,0,0,.651-.261,2.838,2.838,0,0,0,.717-.615,2.571,2.571,0,0,0,.527-1.18l.071-.488.566.136.08-.088a1.038,1.038,0,0,0,.215-.678.721.721,0,0,0-.025-.181l-.035-.128-.152-.071a1.817,1.817,0,0,1-1.19-.659l-.157-.181-.213.122a2.144,2.144,0,0,1-.554.48,1.589,1.589,0,0,1-.589.224,1.491,1.491,0,0,1-.243.032l-3.07,0Zm30-2.128v1.125a2.385,2.385,0,0,0,.33,1.195,2.546,2.546,0,0,0,.718.8l.138.1a2.65,2.65,0,0,0,.578.268l.14.042a2.8,2.8,0,0,0,.593.1l.2.013a2.713,2.713,0,0,0,1.36-.366,2.639,2.639,0,0,0,.717-.614,2.459,2.459,0,0,0,.527-1.181l.071-.488.563.136.08-.087a1.023,1.023,0,0,0,.217-.679.735.735,0,0,0-.025-.181l-.035-.128-.153-.071a1.829,1.829,0,0,1-1.245-.716l-.158-.192-.157.191a1.815,1.815,0,0,1-1.386.736h-3.069Zm-7.044-2.971a.558.558,0,0,0,.551.522h1.987a.532.532,0,0,0,.542-.486l.009-.855-.24.049a2.907,2.907,0,0,1-.586.061h-1.549a2.883,2.883,0,0,1-.482-.047l-.232-.038Zm-12.923-1.057a.553.553,0,0,0,.551.522h1.988a.531.531,0,0,0,.54-.485l.009-.856-.24.049a2.9,2.9,0,0,1-.586.061h-1.548a3.042,3.042,0,0,1-.483-.045l-.232-.039Zm11.748-2.335a1.748,1.748,0,0,0,.571,1.284,1.889,1.889,0,0,0,.739.409,1.914,1.914,0,0,0,.579.109h1.549a1.923,1.923,0,0,0,.7-.135,1.859,1.859,0,0,0,.743-.546,1.733,1.733,0,0,0,.442-1.122V265.1l.342-.078a.849.849,0,0,0,.343-.755.948.948,0,0,0-.243-.695,2.228,2.228,0,0,1-1.653-.961l-.067-.11-2.984.414a4,4,0,0,1-.823-.09l-.242-.052v.659l-.34.078a.843.843,0,0,0-.343.755.924.924,0,0,0,.27.724l.414.106Zm-12.922-1.057a1.746,1.746,0,0,0,.571,1.286,1.867,1.867,0,0,0,.739.408,1.9,1.9,0,0,0,.579.11h1.548a1.95,1.95,0,0,0,.7-.135,1.857,1.857,0,0,0,.743-.547,1.728,1.728,0,0,0,.443-1.122v-1.041l.34-.078a.849.849,0,0,0,.343-.755.922.922,0,0,0-.27-.724l-.414-.106v-1.1a1.793,1.793,0,0,0-1.832-1.748h-1.663a1.793,1.793,0,0,0-1.832,1.748v1.095l-.342.078a.837.837,0,0,0-.342.755.921.921,0,0,0,.267.722l.416.107Zm17.724-3.18a1.177,1.177,0,0,0,.8.74l.243.054v-1.446a1.009,1.009,0,0,0-1.03-.985h-.656l-.07-.361a.942.942,0,0,0-.252-.493,1.744,1.744,0,0,0-1-.419,1.892,1.892,0,0,0-.327-.028,2,2,0,0,0-.706.129l-2.406.779v.135c0,.178.009.344.021.494a2.472,2.472,0,0,0,.22.882,1.02,1.02,0,0,0,.1.178,1.05,1.05,0,0,0,.518.354,2.286,2.286,0,0,0,.739.116l3.7-.509Z" transform="translate(-540.674 -258.085)" fill="#fff" stroke="#12263a" stroke-miterlimit="10" stroke-width="0.105"></path>
    <rect id="Rectangle_136" data-name="Rectangle 136" width="0.997" height="1.636" transform="translate(41.539 24.749)" fill="#fff" stroke="#12263a" stroke-miterlimit="10" stroke-width="0.105"></rect>
    <rect id="Rectangle_137" data-name="Rectangle 137" width="0.997" height="1.636" transform="translate(41.539 26.89)" fill="#fff" stroke="#12263a" stroke-miterlimit="10" stroke-width="0.105"></rect>
    <rect id="Rectangle_138" data-name="Rectangle 138" width="0.997" height="1.636" transform="translate(3.595 26.25)" fill="#fff" stroke="#12263a" stroke-miterlimit="10" stroke-width="0.105"></rect>
    <rect id="Rectangle_139" data-name="Rectangle 139" width="0.997" height="1.636" transform="translate(3.595 24.094)" fill="#fff" stroke="#12263a" stroke-miterlimit="10" stroke-width="0.105"></rect>
    <rect id="Rectangle_140" data-name="Rectangle 140" width="0.997" height="1.636" transform="translate(3.595 29.235)" fill="#fff" stroke="#12263a" stroke-miterlimit="10" stroke-width="0.105"></rect>
  </g>
</svg>
