<?xml version="1.0" encoding="UTF-8"?>
<svg xmlns="http://www.w3.org/2000/svg" width="33.288" height="33.167" viewBox="0 0 33.288 33.167">
  <path id="Path_347" data-name="Path 347" d="M268.82,267.736l-1.274,1.426a.467.467,0,0,0,.7.622l1.257-1.406a2.721,2.721,0,0,0,3.59-4.017l2.718-3.042a.466.466,0,0,0-.7-.622l-2.732,3.057a2.7,2.7,0,0,0-1.386-.392,2.737,2.737,0,0,0-2.733,2.734A2.706,2.706,0,0,0,268.82,267.736Zm2.172-3.44a1.8,1.8,0,0,1,.388.044l.016,0a1.772,1.772,0,0,1,1.289,1.16c.011.029.019.059.028.088a1.778,1.778,0,0,1,.08.5,1.8,1.8,0,0,1-1.8,1.8,1.772,1.772,0,0,1-.435-.059l-.045-.014a1.783,1.783,0,0,1-.38-.155h0a1.812,1.812,0,0,1-.675-.645h0a1.782,1.782,0,0,1-.176-.4c-.008-.025-.016-.047-.023-.072a1.763,1.763,0,0,1-.067-.457A1.8,1.8,0,0,1,270.993,264.3Zm4.246,6.147a.466.466,0,0,0,0,.66l.818.818a.466.466,0,0,0,.66-.66l-.818-.818A.468.468,0,0,0,275.239,270.444Zm-4.527-10.81a.466.466,0,0,0,.466-.466v-1.156a.466.466,0,1,0-.933,0v1.156A.466.466,0,0,0,270.712,259.634Zm8.092,6.929a.466.466,0,1,0,0-.933h-1.156a.466.466,0,1,0,0,.933Zm-7.971-10.719a.467.467,0,0,0,0,.934,9.319,9.319,0,1,1,0,18.638.467.467,0,0,0,0,.934,10.252,10.252,0,1,0,0-20.5Zm1.411,26.889h-1.252l-4.858-4.717a.467.467,0,0,0-.65.669l4.169,4.048h-18.48l8.562-8.32c.066.073.12.145.193.217,1.571,1.526,3,.089,3.949-.859.423-.424,1.005-1.007,1.209-.873s.148.542.112.71a5.06,5.06,0,0,1-3.691,3.4,6.675,6.675,0,0,1-2.3-.013.466.466,0,1,0-.193.912,6.258,6.258,0,0,0,1.3.127,9.178,9.178,0,0,0,1.331-.1,5.928,5.928,0,0,0,4.467-4.124,1.457,1.457,0,0,0-.515-1.691c-.837-.544-1.656.273-2.378,1-1.175,1.179-1.819,1.645-2.639.849-.068-.066-.12-.13-.178-.194l.472-.458a.467.467,0,0,0-.651-.67l-.312.3a1.1,1.1,0,0,1-.033-.3c.028-.768.911-1.508,1.69-2.161a8.754,8.754,0,0,0,1.073-1,6.538,6.538,0,0,0,1.033-4.417h1.845a.466.466,0,0,0,.366-.178l2.717-3.439a.464.464,0,0,0,.1-.289v-4.849a.466.466,0,0,0-.466-.467H253.793a.466.466,0,0,0-.466.467v4.936a.466.466,0,0,0,.119.311l3,3.351a.468.468,0,0,0,.348.156H258.5a3.012,3.012,0,0,1-1.306,2.921,5.773,5.773,0,0,0-2.024,6.268.466.466,0,0,0,.44.31.458.458,0,0,0,.156-.026.468.468,0,0,0,.284-.6,4.892,4.892,0,0,1,1.613-5.15,3.905,3.905,0,0,0,1.773-3.727h3.3c.064.766.118,2.7-.812,3.819a8.258,8.258,0,0,1-.955.882c-.929.778-1.981,1.658-2.024,2.841a2.148,2.148,0,0,0,.241,1.041l-9.35,9.086h-1.571a.467.467,0,0,0-.466.467v5.344a.466.466,0,0,0,.933,0v-4.878h23.047v4.878a.466.466,0,0,0,.933,0V283.2A.467.467,0,0,0,272.244,282.733ZM257,264.132l-2.74-3.062v-4.292h13.509V261l-2.477,3.135Zm13.246,8.841v1.157a.466.466,0,1,0,.933,0v-1.157a.466.466,0,0,0-.933,0Z" transform="translate(-247.798 -255.844)" fill="#fff"></path>
</svg>
