<?xml version="1.0" encoding="UTF-8"?>
<svg xmlns="http://www.w3.org/2000/svg" id="Group_153" data-name="Group 153" width="21.342" height="32" viewBox="0 0 24.508 36.746">
  <path id="Path_207" data-name="Path 207" d="M552.709,361.131h-1.867l.011-1.857a2.15,2.15,0,0,0-2.148-2.148l-16.21,4a2.15,2.15,0,0,0-2.148,2.147V367.8a.492.492,0,1,0,.984,0v-4.518a1.165,1.165,0,0,1,1.164-1.163h20.214a1.164,1.164,0,0,1,1.163,1.163v28.448a1.164,1.164,0,0,1-1.163,1.163H532.495a1.165,1.165,0,0,1-1.164-1.163V372a.492.492,0,1,0-.984,0v19.726a2.15,2.15,0,0,0,2.148,2.147h20.214a2.149,2.149,0,0,0,2.147-2.147V363.278A2.149,2.149,0,0,0,552.709,361.131Zm-4-3.019a1.165,1.165,0,0,1,1.164,1.163v1.857h-13.39Z" transform="translate(-530.347 -357.127)" fill="#fff"></path>
  <path id="Path_208" data-name="Path 208" d="M550.715,373.634a8.336,8.336,0,1,0-.658,3.252A8.3,8.3,0,0,0,550.715,373.634Zm-3.143-5.212a7.272,7.272,0,0,1,2.134,4.716h-2.612a11.727,11.727,0,0,0-1.318-5.286,6.6,6.6,0,0,0-.763-1.088c.071.028.146.049.217.079A7.364,7.364,0,0,1,547.571,368.422Zm-7.987-.086a4.772,4.772,0,0,1,1.257-1.5,2.458,2.458,0,0,1,.978-.43v6.734h-3.427A10.71,10.71,0,0,1,539.584,368.336Zm2.235,5.787v6.734a2.457,2.457,0,0,1-.978-.43,4.765,4.765,0,0,1-1.257-1.5,10.706,10.706,0,0,1-1.192-4.8Zm1.842,6.3a2.557,2.557,0,0,1-.858.408v-6.712h3.306a10.706,10.706,0,0,1-1.192,4.8A4.751,4.751,0,0,1,543.661,380.427Zm-.858-7.289v-6.712a2.517,2.517,0,0,1,.858.408,4.758,4.758,0,0,1,1.257,1.5,10.71,10.71,0,0,1,1.192,4.8Zm-5.654-4.716a7.343,7.343,0,0,1,2.221-1.513,6.791,6.791,0,0,0-.643.943,11.728,11.728,0,0,0-1.318,5.286h-2.394a7.273,7.273,0,0,1,2.134-4.716Zm0,10.422a7.363,7.363,0,0,1-1.58-2.343,7.282,7.282,0,0,1-.554-2.379h2.394a11.72,11.72,0,0,0,1.318,5.285,6.759,6.759,0,0,0,.65.954A7.336,7.336,0,0,1,537.149,378.844Zm10.422,0a7.346,7.346,0,0,1-2.343,1.58c-.075.032-.151.054-.226.083a6.568,6.568,0,0,0,.772-1.1,11.719,11.719,0,0,0,1.318-5.285h2.613a7.278,7.278,0,0,1-2.135,4.721Z" transform="translate(-530.106 -356.591)" fill="#fff"></path>
  <path id="Path_209" data-name="Path 209" d="M547.951,385.026a.492.492,0,0,0-.348-.84h-5.367a.492.492,0,0,0,0,.984H547.6A.489.489,0,0,0,547.951,385.026Z" transform="translate(-529.597 -355.347)" fill="#fff"></path>
  <path id="Path_210" data-name="Path 210" d="M540.288,385.026a.493.493,0,1,0-.348.144A.489.489,0,0,0,540.288,385.026Z" transform="translate(-529.748 -355.347)" fill="#fff"></path>
  <path id="Path_211" data-name="Path 211" d="M538.315,385.026a.492.492,0,0,0-.347-.84h-1.489a.492.492,0,0,0,0,.984h1.489A.488.488,0,0,0,538.315,385.026Z" transform="translate(-529.976 -355.347)" fill="#fff"></path>
  <path id="Path_212" data-name="Path 212" d="M538.013,387.39h8.233a.492.492,0,1,0,0-.985h-8.233a.492.492,0,1,0,0,.985Z" transform="translate(-529.875 -355.201)" fill="#fff"></path>
</svg>
