<?xml version="1.0" encoding="UTF-8"?>
<svg xmlns="http://www.w3.org/2000/svg" id="Group_152" data-name="Group 152" width="47.36" height="33.301" viewBox="0 0 47.36 33.301">
  <path id="Path_178" data-name="Path 178" d="M489.012,437.577h-8.035a.583.583,0,0,0,0,1.165h7.451v2.851H477.543v-14.48a.582.582,0,0,0-.956-.447l-11.094,9.245V424.1a.583.583,0,0,0-.583-.582H452.859a.582.582,0,0,0-.582.582v16.569a.583.583,0,1,0,1.165,0V424.683h10.884v30.969H453.442V447.2h0c0-.016-.008-.03-.009-.047a.518.518,0,0,0-.015-.071.562.562,0,0,0-.094-.218c-.008-.012-.007-.027-.016-.037l-5.022-6.025a.583.583,0,0,0-.9,0l-5.021,6.025c-.009.01-.008.027-.018.038a.566.566,0,0,0-.093.217.492.492,0,0,0-.015.072c0,.015-.009.029-.009.045v9.038a.583.583,0,0,0,.583.583h46.194a.582.582,0,0,0,.582-.583V438.159A.582.582,0,0,0,489.012,437.577Zm-41.174,4.505,3.776,4.533h-7.554Zm-4.439,5.7h8.878v7.872H448.42v-3.434a.583.583,0,0,0-1.165,0v3.434H443.4Zm22.094-10.352,10.884-9.071v27.3H465.493Zm22.935,18.224H477.543V442.76h10.886Z" transform="translate(-442.234 -423.518)" fill="#fff"></path>
  <path id="Path_179" data-name="Path 179" d="M458.344,433.372a.583.583,0,1,0-.582-.583A.584.584,0,0,0,458.344,433.372Z" transform="translate(-439.686 -422.092)" fill="#fff"></path>
  <circle id="Ellipse_2" data-name="Ellipse 2" cx="0.583" cy="0.583" r="0.583" transform="translate(18.076 14.203)" fill="#fff"></circle>
  <path id="Path_180" data-name="Path 180" d="M458.344,443.909a.583.583,0,1,0-.582-.582A.583.583,0,0,0,458.344,443.909Z" transform="translate(-439.686 -420.363)" fill="#fff"></path>
  <circle id="Ellipse_3" data-name="Ellipse 3" cx="0.583" cy="0.583" r="0.583" transform="translate(18.076 18.292)" fill="#fff"></circle>
  <circle id="Ellipse_4" data-name="Ellipse 4" cx="0.583" cy="0.583" r="0.583" transform="translate(18.076 6.025)" fill="#fff"></circle>
  <circle id="Ellipse_5" data-name="Ellipse 5" cx="0.583" cy="0.583" r="0.583" transform="translate(14.059 18.292)" fill="#fff"></circle>
  <path id="Path_181" data-name="Path 181" d="M454.894,443.909a.583.583,0,1,0-.583-.582A.582.582,0,0,0,454.894,443.909Z" transform="translate(-440.252 -420.363)" fill="#fff"></path>
  <circle id="Ellipse_6" data-name="Ellipse 6" cx="0.583" cy="0.583" r="0.583" transform="translate(14.059 14.203)" fill="#fff"></circle>
  <path id="Path_182" data-name="Path 182" d="M454.894,433.372a.583.583,0,1,0-.583-.583A.583.583,0,0,0,454.894,433.372Z" transform="translate(-440.252 -422.092)" fill="#fff"></path>
  <circle id="Ellipse_7" data-name="Ellipse 7" cx="0.583" cy="0.583" r="0.583" transform="translate(14.059 6.025)" fill="#fff"></circle>
  <circle id="Ellipse_8" data-name="Ellipse 8" cx="0.583" cy="0.583" r="0.583" transform="translate(30.127 23.314)" fill="#fff"></circle>
  <circle id="Ellipse_9" data-name="Ellipse 9" cx="0.583" cy="0.583" r="0.583" transform="translate(30.127 19.224)" fill="#fff"></circle>
  <circle id="Ellipse_10" data-name="Ellipse 10" cx="0.583" cy="0.583" r="0.583" transform="translate(30.127 15.135)" fill="#fff"></circle>
  <circle id="Ellipse_11" data-name="Ellipse 11" cx="0.583" cy="0.583" r="0.583" transform="translate(30.127 11.046)" fill="#fff"></circle>
  <circle id="Ellipse_12" data-name="Ellipse 12" cx="0.583" cy="0.583" r="0.583" transform="translate(26.11 15.063)" fill="#fff"></circle>
  <circle id="Ellipse_13" data-name="Ellipse 13" cx="0.583" cy="0.583" r="0.583" transform="translate(26.11 23.241)" fill="#fff"></circle>
  <circle id="Ellipse_14" data-name="Ellipse 14" cx="0.583" cy="0.583" r="0.583" transform="translate(26.11 19.152)" fill="#fff"></circle>
  <circle id="Ellipse_15" data-name="Ellipse 15" cx="0.583" cy="0.583" r="0.583" transform="translate(42.177 22.092)" fill="#fff"></circle>
  <circle id="Ellipse_16" data-name="Ellipse 16" cx="0.583" cy="0.583" r="0.583" transform="translate(38.161 22.092)" fill="#fff"></circle>
</svg>
