<?xml version="1.0" encoding="UTF-8"?>
<svg xmlns="http://www.w3.org/2000/svg" width="116.225" height="23.207" viewBox="0 0 116.225 23.207">
  <g id="Group_134" data-name="Group 134" transform="translate(0.05 0.052)">
    <path id="Path_198" data-name="Path 198" d="M513.237,185.793a.671.671,0,0,0,0-1.342H499.626a.671.671,0,1,0,0,1.342Z" transform="translate(-459.909 -175.249)" fill="#fff" stroke="#12263a" stroke-miterlimit="10" stroke-width="0.1"></path>
    <path id="Path_199" data-name="Path 199" d="M522.686,185.793a.671.671,0,0,0,0-1.342H509.073a.671.671,0,0,0,0,1.342Z" transform="translate(-450.954 -175.249)" fill="#fff" stroke="#12263a" stroke-miterlimit="10" stroke-width="0.1"></path>
    <path id="Path_200" data-name="Path 200" d="M532.133,185.793a.671.671,0,1,0,0-1.342H518.522a.671.671,0,0,0,0,1.342Z" transform="translate(-441.999 -175.249)" fill="#fff" stroke="#12263a" stroke-miterlimit="10" stroke-width="0.1"></path>
    <path id="Path_201" data-name="Path 201" d="M527.971,185.793h9.772a.671.671,0,1,0,0-1.342h-9.772a.671.671,0,0,0,0,1.342Z" transform="translate(-433.043 -175.249)" fill="#fff" stroke="#12263a" stroke-miterlimit="10" stroke-width="0.1"></path>
    <path id="Path_202" data-name="Path 202" d="M503.868,185.793a.671.671,0,1,0,0-1.342H490.257a.671.671,0,1,0,0,1.342Z" transform="translate(-468.789 -175.249)" fill="#fff" stroke="#12263a" stroke-miterlimit="10" stroke-width="0.1"></path>
    <path id="Path_203" data-name="Path 203" d="M486.63,181.842a.84.84,0,1,0,.84.839A.84.84,0,0,0,486.63,181.842Z" transform="translate(-472.385 -177.722)" fill="#fff" stroke="#12263a" stroke-miterlimit="10" stroke-width="0.1"></path>
    <path id="Path_204" data-name="Path 204" d="M486.63,183.6a.84.84,0,1,0,.84.841A.84.84,0,0,0,486.63,183.6Z" transform="translate(-472.385 -176.052)" fill="#fff" stroke="#12263a" stroke-miterlimit="10" stroke-width="0.1"></path>
    <path id="Path_205" data-name="Path 205" d="M484.7,183.6a.84.84,0,1,0,.839.841A.84.84,0,0,0,484.7,183.6Z" transform="translate(-474.211 -176.052)" fill="#fff" stroke="#12263a" stroke-miterlimit="10" stroke-width="0.1"></path>
    <path id="Path_206" data-name="Path 206" d="M594.363,188.531H587.1a.673.673,0,0,0-.594.358l-1.023,1.942H572.168V181.04a.671.671,0,1,0-1.342,0v3.675l-15.187-4.955a.671.671,0,0,0-.415,1.276l15.6,5.091v4.7H553.764V181.04a.671.671,0,1,0-1.342,0v3.675l-15.187-4.955a.671.671,0,0,0-.415,1.276l15.6,5.091v4.7h-17.06V181.04a.672.672,0,1,0-1.344,0v3.675l-15.187-4.955a.671.671,0,0,0-.415,1.276l15.6,5.091v4.7h-17.06V181.04a.671.671,0,1,0-1.342,0v3.675l-15.189-4.955a.671.671,0,1,0-.415,1.276l15.6,5.091v4.7h-19.2v-8.858a.67.67,0,0,0-.67-.672h-5.57a.67.67,0,0,0-.67.672V183h-1.079v-2.355a.673.673,0,0,0-.672-.672h-1.938a.672.672,0,0,0-.67.672v10.191H479.58a.672.672,0,0,0-.672.672v10.654a.673.673,0,0,0,.672.672l110.147,0c.016,0,.091,0,.212,0a6.118,6.118,0,0,0,3.989-1.332,3.605,3.605,0,0,0,1.1-2.733V189.2A.67.67,0,0,0,594.363,188.531Zm-107.88-7.218h.6v2.355a.67.67,0,0,0,.67.67h2.421a.672.672,0,0,0,.672-.67v-1.025h4.227v8.188h-8.586Zm107.208,17.454a2.286,2.286,0,0,1-.684,1.755,5.046,5.046,0,0,1-3.245.966H480.25v-5.134H593.691Zm0-3.755H480.25v-2.838H585.886a.676.676,0,0,0,.6-.358l1.021-1.942h6.188Z" transform="translate(-478.908 -179.727)" fill="#fff" stroke="#12263a" stroke-miterlimit="10" stroke-width="0.1"></path>
  </g>
</svg>
