<?xml version="1.0" encoding="UTF-8"?>
<svg xmlns="http://www.w3.org/2000/svg" id="Group_148" data-name="Group 148" width="28.488" height="35.466" viewBox="0 0 28.488 35.466">
  <path id="Path_192" data-name="Path 192" d="M293.659,390.446a16.907,16.907,0,0,1-1.891,1.764.455.455,0,0,0,.568.71,17.883,17.883,0,0,0,1.991-1.86.454.454,0,1,0-.669-.614Z" transform="translate(-267.027 -361.33)" fill="#fff"></path>
  <path id="Path_193" data-name="Path 193" d="M288.734,393.327a16.794,16.794,0,0,1-18.851-.691c-.408-.3-.8-.625-1.178-.96l.081.026a.454.454,0,0,0,.284-.863l-1.935-.637c-.012,0-.024,0-.036,0a.449.449,0,0,0-.177-.007.365.365,0,0,0-.234.1l-.009.012-.008,0c-.008.009-.008.02-.016.028a.452.452,0,0,0-.089.161.3.3,0,0,0-.014.058.437.437,0,0,0,.01.212v.01h0l.65,1.926a.454.454,0,0,0,.43.309.435.435,0,0,0,.145-.024.455.455,0,0,0,.285-.576l-.041-.12c.422.376.857.736,1.312,1.069a17.743,17.743,0,0,0,19.871.729.455.455,0,1,0-.482-.771Z" transform="translate(-265.574 -361.324)" fill="#fff"></path>
  <path id="Path_194" data-name="Path 194" d="M266.991,366.4a.452.452,0,0,0,.337-.15,17,17,0,0,1,1.875-1.781.454.454,0,0,0-.574-.7,17.891,17.891,0,0,0-1.975,1.877.454.454,0,0,0,.337.758Z" transform="translate(-265.573 -359.785)" fill="#fff"></path>
  <path id="Path_195" data-name="Path 195" d="M270.993,363.09a16.757,16.757,0,0,1,20.275,1.67l-.111-.042a.454.454,0,0,0-.327.848l1.9.734a.454.454,0,0,0,.6-.547l-.553-1.96a.454.454,0,1,0-.874.246l.029.1a17.33,17.33,0,0,0-4.646-3.049,17.6,17.6,0,0,0-7.252-1.546h0a17.667,17.667,0,0,0-9.531,2.777.454.454,0,1,0,.489.766Z" transform="translate(-265.791 -359.547)" fill="#fff"></path>
  <path id="Path_196" data-name="Path 196" d="M290.029,373.78a2.377,2.377,0,0,0-1.3-3.773h-1.7a2.377,2.377,0,0,0,1.3,3.773ZM287.8,372.4a.454.454,0,0,0-.451-.4h-.32a.541.541,0,1,1,0-1.081h1.7a.54.54,0,0,1,.532.476.454.454,0,0,0,.45.4h.318a.541.541,0,1,1,0,1.081h-1.7A.536.536,0,0,1,287.8,372.4Z" transform="translate(-266.677 -360.154)" fill="#fff"></path>
  <path id="Path_197" data-name="Path 197" d="M294,377.5c0-.418-.02-.834-.056-1.247-.012-.146-.039-.29-.056-.435-.031-.266-.06-.532-.106-.8-.029-.168-.072-.332-.107-.5-.051-.238-.1-.477-.161-.711-.046-.171-.1-.34-.156-.511s-.1-.365-.167-.545c-.016-.045-.037-.088-.054-.133s-.024-.081-.039-.121c-.047-.124-.105-.243-.155-.365-.085-.208-.169-.416-.264-.62-.075-.163-.158-.322-.24-.482-.1-.195-.2-.389-.308-.579-.09-.159-.188-.316-.285-.471-.114-.183-.229-.365-.351-.543-.106-.153-.215-.3-.326-.449-.075-.1-.142-.205-.22-.3-.058-.074-.124-.142-.184-.215s-.1-.132-.152-.194-.128-.136-.19-.205q-.232-.263-.477-.513-.172-.178-.35-.349c-.176-.169-.357-.331-.542-.49-.117-.1-.234-.2-.354-.3-.2-.159-.4-.311-.6-.459-.118-.086-.235-.172-.355-.254-.064-.043-.124-.092-.189-.135-.155-.1-.319-.19-.479-.286-.117-.071-.233-.143-.352-.21-.246-.138-.5-.265-.751-.388-.106-.052-.211-.107-.319-.156-.268-.122-.543-.231-.818-.336-.1-.039-.2-.083-.3-.119-.283-.1-.572-.186-.861-.269-.1-.029-.2-.063-.3-.09-.031-.008-.061-.019-.092-.027a.321.321,0,0,0-.043,0c-.34-.086-.683-.165-1.031-.225a.455.455,0,0,0-.49.639,1.555,1.555,0,0,1,.168.647.8.8,0,0,1-.048.283c-.164.447-.773.674-1.383.867s-1.194.4-1.77.614a2.117,2.117,0,0,0-1.283.982,1.458,1.458,0,0,0-.127.617,3.471,3.471,0,0,0,.1.73,2.826,2.826,0,0,1,.084.562c0,.035,0,.069,0,.1-.059.515-.649.893-1.133,1.119h0c-.1.045-.191.089-.292.134a3.719,3.719,0,0,0-1.65,1.16,1.326,1.326,0,0,0-.256.743,1,1,0,0,0,.02.2c.057.277.319.917,1.538.917l.128,0c.39-.014.785-.034,1.166-.053.745-.038,1.515-.076,2.265-.076a14.815,14.815,0,0,1,2.136.138,3.438,3.438,0,0,1,1.586.554,4.2,4.2,0,0,1,1.115,1.825l0,.012a.9.9,0,0,1,.066.219v0c0,.044-.122.152-.324.192a3.14,3.14,0,0,1-.342.039,2.667,2.667,0,0,0-.683.118,2.751,2.751,0,0,0-.806.5,1.515,1.515,0,0,1-.619.364.591.591,0,0,1-.083.006,1.957,1.957,0,0,1-.662-.187l-.039-.016a14.05,14.05,0,0,0-4.215-.967c-.252-.018-.481-.026-.7-.026a4.921,4.921,0,0,0-2.3.483,4.975,4.975,0,0,0-1.848,1.655,4.208,4.208,0,0,0-.731,2.324c0,.1,0,.207.012.311a4.173,4.173,0,0,0,1.487,2.638,11.462,11.462,0,0,0,1.926,1.4,6.294,6.294,0,0,0,1.3.577.454.454,0,1,0,.28-.864,5.313,5.313,0,0,1-1.118-.494c-1.881-1.119-2.882-2.24-2.972-3.332-.007-.078-.01-.157-.01-.236a3.305,3.305,0,0,1,.579-1.821,3.767,3.767,0,0,1,3.392-1.733c.2,0,.407.008.637.024a13.128,13.128,0,0,1,3.94.9l.037.015a2.66,2.66,0,0,0,1,.254,1.423,1.423,0,0,0,.219-.017,2.234,2.234,0,0,0,1.048-.55,2.027,2.027,0,0,1,.538-.349,1.917,1.917,0,0,1,.457-.07,3.572,3.572,0,0,0,.449-.055,1.223,1.223,0,0,0,1.051-1.006q0-.04,0-.079a1.489,1.489,0,0,0-.124-.542l-.007-.017,0-.008a4.949,4.949,0,0,0-1.406-2.211,4.263,4.263,0,0,0-2.009-.732,15.677,15.677,0,0,0-2.267-.147c-.772,0-1.554.039-2.31.076-.379.019-.771.039-1.156.053-.031,0-.062,0-.093,0-.4,0-.629-.1-.648-.189v0l0-.015a.465.465,0,0,1,.1-.227,2.96,2.96,0,0,1,1.276-.848c.1-.045.2-.092.306-.14a2.5,2.5,0,0,0,1.649-1.838,1.78,1.78,0,0,0,.011-.2,3.522,3.522,0,0,0-.1-.754,2.732,2.732,0,0,1-.082-.539.561.561,0,0,1,.046-.24v0c.107-.238.456-.386.775-.506.562-.213,1.143-.415,1.725-.6a2.777,2.777,0,0,0,1.96-1.419,1.7,1.7,0,0,0,.1-.6,1.968,1.968,0,0,0-.016-.244c.24.056.475.126.711.2.145.042.291.083.435.13.2.067.405.142.606.219.132.051.264.1.395.154.2.085.4.178.6.272.126.06.253.121.378.186.188.1.374.2.558.31.13.075.26.152.388.232.173.109.344.224.512.341.126.088.253.176.376.269.16.12.316.244.472.371.123.1.247.2.366.309.145.128.287.261.428.4.121.116.24.234.357.354s.255.272.38.412.225.258.335.391c.131.16.257.324.381.489.1.138.205.277.3.418.116.168.224.338.332.511.09.145.181.29.266.439.1.178.2.362.29.544.075.149.154.3.223.448.089.192.169.388.249.585.063.155.13.31.187.468.041.116.078.233.117.349.073.219.141.439.2.661.034.125.066.251.1.377.055.222.1.446.144.671.024.122.047.242.067.365.04.253.072.509.1.765.009.093.024.185.031.278,0,.022,0,.043,0,.065a8.246,8.246,0,0,0-1.413-1.036,1.862,1.862,0,0,0-.9-.276,1.057,1.057,0,0,0-.6.178,1.175,1.175,0,0,0-.48.986c0,.031,0,.062,0,.093v.006a2.594,2.594,0,0,0,.272.879c.042.093.082.182.115.268a1.97,1.97,0,0,1,.124.7,4.206,4.206,0,0,1-.751,2.145,1.611,1.611,0,0,0-.313.848.916.916,0,0,0,.052.307,1.272,1.272,0,0,0,.349.5,1.311,1.311,0,0,1,.1.109.346.346,0,0,1,.08.232,1.945,1.945,0,0,1-.261.742A14.053,14.053,0,0,0,288,387.965c-.257.2-.514.4-.785.586-.032.022-.065.04-.1.061q-.441.291-.9.547c-.091.051-.184.1-.276.146q-.413.216-.841.405c-.077.034-.154.07-.233.1-.374.156-.754.3-1.139.416-.051.016-.1.027-.155.043q-.486.144-.982.25c-.124.027-.249.052-.374.075-.292.055-.587.1-.883.132-.1.012-.207.03-.311.04l-.052,0a6.79,6.79,0,0,1-.806-1.759,7.7,7.7,0,0,0-1.095-2.263,4.108,4.108,0,0,0-1.321-1.134.454.454,0,0,0-.428.8,3.192,3.192,0,0,1,1.032.891,7,7,0,0,1,.954,2.006,10.178,10.178,0,0,0,.634,1.507c-.061,0-.122.009-.184.009A13.322,13.322,0,0,1,267.4,372.51a3.418,3.418,0,0,0,2.208-.781,7.019,7.019,0,0,0,1.383-1.708,7.966,7.966,0,0,1,.613-.872,4.41,4.41,0,0,1,2.519-1.092,5.034,5.034,0,0,0,2.851-1.275h0a2.09,2.09,0,0,0,.527-1.52,3.281,3.281,0,0,0-.179-.87,13.152,13.152,0,0,1,3.838-.159.454.454,0,1,0,.094-.9,14.127,14.127,0,0,0-4.586.269.417.417,0,0,0-.059,0c-.117.026-.227.07-.342.1-.352.09-.7.187-1.048.3-.177.06-.351.125-.526.192-.158.06-.319.107-.475.173-.174.073-.338.164-.508.244-.145.069-.289.135-.431.207-.379.194-.746.406-1.1.632-.074.047-.152.089-.224.137a14.13,14.13,0,0,0-1.292.953l-.011.01c-.329.275-.649.562-.955.869-.055.054-.1.114-.155.17-.1.1-.192.212-.289.317-.257.282-.5.571-.737.871-.1.125-.192.252-.286.382q-.331.458-.624.942c-.079.13-.161.257-.236.39q-.328.581-.6,1.2c-.027.062-.064.118-.09.18l0,.013c-.01.023-.023.043-.032.066a14.241,14.241,0,0,0,13.125,19.789c.325,0,.646-.026.967-.048a.376.376,0,0,0,.044.009h.032c.067,0,.133-.016.2-.022.158-.014.316-.034.473-.053.283-.034.566-.076.846-.126.142-.026.285-.05.427-.081.407-.086.81-.186,1.206-.307l.015,0c.419-.129.83-.284,1.235-.451.033-.013.067-.023.1-.037.064-.027.124-.062.188-.09q.435-.192.857-.412c.115-.06.229-.121.342-.183.269-.151.533-.312.793-.48.1-.064.2-.122.295-.188.321-.22.636-.45.941-.7,0,0,.007-.009.011-.014a14.154,14.154,0,0,0,5.265-10.914l0-.011C294,377.578,294,377.534,294,377.5Zm-17.712-11.316a4.337,4.337,0,0,1-2.366.99,5.133,5.133,0,0,0-3.014,1.389,8.7,8.7,0,0,0-.688.971,6.256,6.256,0,0,1-1.194,1.5,2.463,2.463,0,0,1-1.2.541c.028-.057.054-.116.083-.172.14-.272.293-.535.45-.8.077-.127.15-.257.232-.382.19-.292.4-.573.609-.848.066-.085.125-.175.193-.259a13.45,13.45,0,0,1,1.958-1.964c.035-.028.073-.053.107-.08.321-.256.654-.5,1-.724.1-.063.2-.119.295-.179.285-.176.574-.347.871-.5.141-.073.287-.139.43-.207.262-.124.527-.243.8-.35.178-.071.359-.134.539-.2.258-.09.518-.173.783-.247.089-.025.181-.046.271-.07A1.5,1.5,0,0,1,276.291,366.179Zm15.755,16.507a13.31,13.31,0,0,1-2.858,4.239c-.041.042-.088.076-.13.118a13.128,13.128,0,0,1,1.18-3.477,2.656,2.656,0,0,0,.358-1.152,1.246,1.246,0,0,0-.279-.8l0,0a2.374,2.374,0,0,0-.17-.183.763.763,0,0,1-.13-.149l0,0v-.007a1.077,1.077,0,0,1,.173-.363v0a5.071,5.071,0,0,0,.889-2.627,2.858,2.858,0,0,0-.184-1.026c-.043-.111-.09-.216-.137-.317a1.87,1.87,0,0,1-.193-.575v-.029a.3.3,0,0,1,.08-.234.155.155,0,0,1,.093-.023.981.981,0,0,1,.454.157,8.556,8.556,0,0,1,1.891,1.545A13.241,13.241,0,0,1,292.046,382.685Z" transform="translate(-265.514 -359.762)" fill="#fff"></path>
</svg>
