<?xml version="1.0" encoding="UTF-8"?>
<svg xmlns="http://www.w3.org/2000/svg" width="57.437" height="32.438" viewBox="0 0 57.437 32.438">
  <g id="Group_137" data-name="Group 137" transform="translate(0.075 0.075)">
    <path id="Path_184" data-name="Path 184" d="M394.536,453.593h-9.468V436.379a.516.516,0,0,0-.516-.515H348.081a.515.515,0,0,0-.515.515v17.214h-9.285a.515.515,0,0,0-.515.516v5.052a.515.515,0,0,0,.515.516h56.254a.517.517,0,0,0,.516-.516v-5.052A.517.517,0,0,0,394.536,453.593ZM348.6,436.9h35.441v16.7h-1.112V440.276a.516.516,0,0,0-.516-.516H367.668a.517.517,0,0,0-.516.516v13.317H365.78V440.237a.514.514,0,0,0-.515-.515H350.576a.515.515,0,0,0-.516.515v13.355H348.6Zm33.3,3.9v12.8H368.183v-12.8Zm-17.144-.038v12.841H351.091V440.752Zm29.271,17.894H338.8v-4.023h55.223Z" transform="translate(-337.766 -427.39)" fill="#fff" stroke="#12263a" stroke-miterlimit="10" stroke-width="0.15"></path>
    <path id="Path_185" data-name="Path 185" d="M338.282,437.329h12.858a.516.516,0,1,0,0-1.031H338.8v-5.592h9.587v1.023h-.937a.515.515,0,0,0-.515.516v1.861a.514.514,0,0,0,.515.515h2.914a.514.514,0,0,0,.515-.515v-1.861a.515.515,0,0,0-.515-.516h-.946V430.19a.514.514,0,0,0-.515-.515H338.282a.515.515,0,0,0-.516.515v6.624A.515.515,0,0,0,338.282,437.329Zm11.563-3.739h-1.881v-.83h1.881Z" transform="translate(-337.766 -429.675)" fill="#fff" stroke="#12263a" stroke-miterlimit="10" stroke-width="0.15"></path>
    <path id="Path_186" data-name="Path 186" d="M382.834,429.675H372.217a.515.515,0,0,0-.516.515v1.539h-.945a.517.517,0,0,0-.516.516v1.861a.515.515,0,0,0,.516.515h2.912a.515.515,0,0,0,.516-.515v-1.861a.517.517,0,0,0-.516-.516h-.936v-1.023h9.587V436.3H369.976a.516.516,0,0,0,0,1.031h12.858a.515.515,0,0,0,.516-.515V430.19A.515.515,0,0,0,382.834,429.675Zm-9.68,3.915h-1.883v-.83h1.883Z" transform="translate(-326.064 -429.675)" fill="#fff" stroke="#12263a" stroke-miterlimit="10" stroke-width="0.15"></path>
    <path id="Path_187" data-name="Path 187" d="M354.129,437.329h12.858a.515.515,0,0,0,.516-.515V430.19a.515.515,0,0,0-.516-.515H356.37a.515.515,0,0,0-.516.515v1.539h-.945a.517.517,0,0,0-.516.516v1.861a.515.515,0,0,0,.516.515h2.912a.515.515,0,0,0,.516-.515v-1.861a.517.517,0,0,0-.516-.516h-.937v-1.023h9.587V436.3H354.129a.516.516,0,0,0,0,1.031Zm3.178-3.739h-1.883v-.83h1.883Z" transform="translate(-331.915 -429.675)" fill="#fff" stroke="#12263a" stroke-miterlimit="10" stroke-width="0.15"></path>
    <path id="Path_188" data-name="Path 188" d="M352.4,438.5a.676.676,0,1,0-.676-.676A.676.676,0,0,0,352.4,438.5Z" transform="translate(-332.611 -426.917)" fill="#fff" stroke="#12263a" stroke-miterlimit="10" stroke-width="0.15"></path>
    <path id="Path_189" data-name="Path 189" d="M362.506,438.5a.676.676,0,1,0-.675-.676A.675.675,0,0,0,362.506,438.5Z" transform="translate(-328.881 -426.917)" fill="#fff" stroke="#12263a" stroke-miterlimit="10" stroke-width="0.15"></path>
    <path id="Path_190" data-name="Path 190" d="M354.751,438.5a.676.676,0,1,0-.675-.676A.676.676,0,0,0,354.751,438.5Z" transform="translate(-331.744 -426.917)" fill="#fff" stroke="#12263a" stroke-miterlimit="10" stroke-width="0.15"></path>
    <path id="Path_191" data-name="Path 191" d="M364.854,438.5a.676.676,0,1,0-.676-.676A.676.676,0,0,0,364.854,438.5Z" transform="translate(-328.014 -426.917)" fill="#fff" stroke="#12263a" stroke-miterlimit="10" stroke-width="0.15"></path>
  </g>
</svg>
