<svg id="Group_32" data-name="Group 32" xmlns="http://www.w3.org/2000/svg" width="243.245" height="61.434" viewBox="0 0 243.245 61.434">
  <path id="Path_116" data-name="Path 116" d="M339.945,373.521l-.113-1.5a17.559,17.559,0,0,1,3.62-.391,5.62,5.62,0,0,1,2.716.509,2.029,2.029,0,0,1,.889,1.933,3.946,3.946,0,0,1-.391,1.777,8.5,8.5,0,0,1-1.484,1.935l-2.985,3.086a12.733,12.733,0,0,1,1.745-.094h3.475v1.847h-7.668v-1.176a1.1,1.1,0,0,1,.3-.812l2.936-3.118q2.04-2.082,2.023-3.286a.725.725,0,0,0-.415-.729,3.906,3.906,0,0,0-1.347-.165,30.323,30.323,0,0,0-3.295.188" transform="translate(-128.859 -346.5)" fill="#12263a"/>
  <path id="Path_117" data-name="Path 117" d="M348.1,373.264a1.7,1.7,0,0,0-1.655.845,11.04,11.04,0,0,0,0,6.233,1.7,1.7,0,0,0,1.655.847,1.752,1.752,0,0,0,1.7-.847,10.892,10.892,0,0,0,0-6.233,1.755,1.755,0,0,0-1.7-.845m-3.18-.368a4.651,4.651,0,0,1,6.4,0,10.632,10.632,0,0,1,0,8.66,4.657,4.657,0,0,1-6.4,0,10.724,10.724,0,0,1,0-8.66" transform="translate(-124.009 -346.508)" fill="#12263a"/>
  <path id="Path_118" data-name="Path 118" d="M348.708,373.521l-.113-1.5a17.558,17.558,0,0,1,3.62-.391,5.62,5.62,0,0,1,2.716.509,2.029,2.029,0,0,1,.89,1.933,3.946,3.946,0,0,1-.391,1.777,8.492,8.492,0,0,1-1.484,1.935l-2.985,3.086a12.731,12.731,0,0,1,1.745-.094h3.475v1.847h-7.668v-1.176a1.1,1.1,0,0,1,.3-.812l2.936-3.118q2.04-2.082,2.023-3.286a.725.725,0,0,0-.415-.729,3.907,3.907,0,0,0-1.347-.165,30.324,30.324,0,0,0-3.295.188" transform="translate(-118.885 -346.5)" fill="#12263a"/>
  <path id="Path_119" data-name="Path 119" d="M357.459,382.519h-2.04V374.55a5.955,5.955,0,0,1,.083-1.065l-2.643.718-.246-1.392,2.805-1.1h2.04Z" transform="translate(-114.215 -346.4)" fill="#12263a"/>
  <path id="Path_120" data-name="Path 120" d="M245.965,382.519h-2.04V374.55a6.169,6.169,0,0,1,.081-1.065l-2.641.718-.246-1.392,2.805-1.1h2.04Z" transform="translate(-241.12 -346.4)" fill="#12263a"/>
  <path id="Path_121" data-name="Path 121" d="M248.015,377.422a2.951,2.951,0,0,0,1.018-.165,4.836,4.836,0,0,0,1.052-.588q0-.924-.041-1.426a6.914,6.914,0,0,0-.139-.954,1.144,1.144,0,0,0-.325-.65,1.618,1.618,0,0,0-.571-.306,3.039,3.039,0,0,0-.9-.109,1.754,1.754,0,0,0-1.492.509,2.884,2.884,0,0,0-.351,1.683,2.373,2.373,0,0,0,.368,1.527,1.682,1.682,0,0,0,1.379.479m-3.182,5.119.148-1.377q.847.045,2.527.047a2.379,2.379,0,0,0,1.941-.667,4.67,4.67,0,0,0,.62-2.575,3.09,3.09,0,0,1-1.142.744,4.584,4.584,0,0,1-1.5.21q-3.082,0-3.083-3.492a4.037,4.037,0,0,1,.849-2.9,3.935,3.935,0,0,1,2.936-.909,7.144,7.144,0,0,1,1.7.171,3.005,3.005,0,0,1,1.127.526,2.142,2.142,0,0,1,.676,1.033,7.227,7.227,0,0,1,.319,1.535,21.8,21.8,0,0,1,.09,2.2,14.548,14.548,0,0,1-.237,2.919,3.585,3.585,0,0,1-.815,1.738,2.908,2.908,0,0,1-1.371.838,8.123,8.123,0,0,1-2.1.22,11.684,11.684,0,0,1-2.692-.267" transform="translate(-237.451 -346.5)" fill="#12263a"/>
  <path id="Path_122" data-name="Path 122" d="M248.815,373.521l-.113-1.5a17.543,17.543,0,0,1,3.62-.391,5.62,5.62,0,0,1,2.716.509,2.033,2.033,0,0,1,.89,1.933,3.945,3.945,0,0,1-.391,1.777,8.555,8.555,0,0,1-1.484,1.935l-2.985,3.086a12.731,12.731,0,0,1,1.745-.094h3.475v1.847h-7.668v-1.176a1.1,1.1,0,0,1,.3-.812l2.936-3.118q2.04-2.082,2.023-3.286a.723.723,0,0,0-.417-.729,3.884,3.884,0,0,0-1.345-.165,30.325,30.325,0,0,0-3.295.188" transform="translate(-232.586 -346.5)" fill="#12263a"/>
  <path id="Path_123" data-name="Path 123" d="M257.565,382.519h-2.04V374.55a6.162,6.162,0,0,1,.081-1.065l-2.641.718-.246-1.392,2.805-1.1h2.04Z" transform="translate(-227.917 -346.4)" fill="#12263a"/>
  <path id="Path_124" data-name="Path 124" d="M382.22,395.621a19.569,19.569,0,0,1-12.622,3.692,23.348,23.348,0,0,1-6.211-1.3,40.738,40.738,0,0,1-5.673-2.6A41.965,41.965,0,0,1,352.422,392c-1.711-1.264-3.361-2.641-4.982-4.086-3.271-2.88-6.306-6.071-9.413-9.376a108.509,108.509,0,0,0-10.139-9.887,43.282,43.282,0,0,0-6.265-4.321,34.725,34.725,0,0,0-15.126-4.379,37.114,37.114,0,0,0-7.961.325,30.594,30.594,0,0,0-14.8,6.541,29.074,29.074,0,0,0-9,13.152,31.647,31.647,0,0,0-1.561,7.638,35.607,35.607,0,0,0,.2,7.676,32.156,32.156,0,0,0,2,7.559,30.208,30.208,0,0,0,4,6.93,29.04,29.04,0,0,0,13.06,9.487,33.024,33.024,0,0,0,7.886,1.83,36.1,36.1,0,0,0,7.995-.028,31.821,31.821,0,0,0,14.835-5.745,45.041,45.041,0,0,0,9.637-9.541l-.385-.409c-2.008-2.136-3.9-4.112-5.795-5.97-.092.137-.175.282-.269.419a36.343,36.343,0,0,1-8.311,8.9,22.049,22.049,0,0,1-10.729,4.193,24.013,24.013,0,0,1-5.927-.054,21.223,21.223,0,0,1-5.589-1.488,19.478,19.478,0,0,1-8.487-6.962,23.55,23.55,0,0,1-3.706-10.349c-.892-7.582,1.063-15.461,6.526-20.469a19.767,19.767,0,0,1,4.554-3.182,21.686,21.686,0,0,1,5.429-1.815,24.33,24.33,0,0,1,5.94-.436,26.524,26.524,0,0,1,5.908.885,28.638,28.638,0,0,1,10.539,5.722,122.038,122.038,0,0,1,9.526,9.1,138.328,138.328,0,0,0,10.206,9.669,60.076,60.076,0,0,0,5.887,4.308,43.613,43.613,0,0,0,6.675,3.445,26.742,26.742,0,0,0,7.475,1.8,27.526,27.526,0,0,0,7.659-.323,23.774,23.774,0,0,0,6.887-2.733,34.106,34.106,0,0,0,5.685-4.131Z" transform="translate(-204.771 -359.876)" fill="#12263a"/>
  <path id="Path_125" data-name="Path 125" d="M390.586,385.9a32.019,32.019,0,0,0-2-7.559,30.194,30.194,0,0,0-4-6.928,29,29,0,0,0-13.058-9.487,32.94,32.94,0,0,0-7.886-1.832,35.973,35.973,0,0,0-8,.028,31.843,31.843,0,0,0-14.835,5.745,45.005,45.005,0,0,0-9.637,9.543l.387.408c2.008,2.136,3.9,4.11,5.793,5.966.092-.135.177-.28.269-.417a36.3,36.3,0,0,1,8.311-8.9,22.009,22.009,0,0,1,10.732-4.193,23.8,23.8,0,0,1,5.925.051,21.216,21.216,0,0,1,5.591,1.49,19.5,19.5,0,0,1,8.487,6.96,23.51,23.51,0,0,1,3.7,10.349c.894,7.584-1.063,15.464-6.524,20.469a19.872,19.872,0,0,1-4.554,3.18,21.617,21.617,0,0,1-5.431,1.817,24.519,24.519,0,0,1-5.94.438,26.633,26.633,0,0,1-5.908-.885,28.653,28.653,0,0,1-10.539-5.722,122.145,122.145,0,0,1-9.526-9.1,138.83,138.83,0,0,0-10.206-9.669,60.04,60.04,0,0,0-5.886-4.3,43.685,43.685,0,0,0-6.673-3.447,26.823,26.823,0,0,0-7.477-1.8,27.529,27.529,0,0,0-7.659.323,23.805,23.805,0,0,0-6.885,2.735,33.706,33.706,0,0,0-5.686,4.131l.261.274a19.558,19.558,0,0,1,12.624-3.693,23.2,23.2,0,0,1,6.209,1.3,41.244,41.244,0,0,1,5.675,2.594,42.231,42.231,0,0,1,5.292,3.419c1.708,1.262,3.361,2.643,4.98,4.086,3.271,2.88,6.308,6.07,9.413,9.376a109.053,109.053,0,0,0,10.142,9.889,43.186,43.186,0,0,0,6.265,4.317,34.752,34.752,0,0,0,7.3,3.06,35.149,35.149,0,0,0,7.826,1.319,37,37,0,0,0,7.961-.323,30.6,30.6,0,0,0,14.8-6.539,29.119,29.119,0,0,0,9-13.152,31.474,31.474,0,0,0,1.561-7.638,35.612,35.612,0,0,0-.2-7.678" transform="translate(-195.18 -359.87)" fill="#12263a"/>
  <path id="Path_126" data-name="Path 126" d="M282.015,420.239h-9.068V373.748a27.785,27.785,0,0,1,.453-5.4l-11.5,3.329-1.088-6.53,12.13-4.982h9.068Z" transform="translate(-218.7 -359.545)" fill="#12263a"/>
</svg>
